<svg width="24" height="24" viewBox="0 0 24 24" fill="none" xmlns="http://www.w3.org/2000/svg">
<path d="M3.09871 16.7344C2.95394 16.7344 2.81224 16.6926 2.69072 16.6139C2.5692 16.5352 2.47304 16.4231 2.41387 16.2909C1.69784 14.6918 1.39337 12.9389 1.52821 11.1919C1.66306 9.44498 2.23292 7.75956 3.18588 6.28923C4.13884 4.8189 5.4446 3.61042 6.98416 2.77392C8.52372 1.93741 10.2481 1.49947 12.0003 1.5C12.1992 1.5 12.39 1.57902 12.5306 1.71967C12.6713 1.86032 12.7503 2.05109 12.7503 2.25V12C12.7503 12.1448 12.7084 12.2866 12.6296 12.4081C12.5509 12.5296 12.4386 12.6257 12.3064 12.6848L3.40481 16.6669C3.3087 16.7108 3.20437 16.7338 3.09871 16.7344Z" fill="black"/>
<path d="M14.6993 3.19593C14.6449 3.1849 14.5887 3.18608 14.5349 3.19937C14.481 3.21267 14.4307 3.23776 14.3877 3.27282C14.3447 3.30789 14.3101 3.35206 14.2862 3.40215C14.2623 3.45224 14.2499 3.507 14.2497 3.56249V12C14.2494 12.4342 14.1235 12.8591 13.8873 13.2235C13.6512 13.588 13.3147 13.8764 12.9185 14.0541L4.83395 17.6719C4.78384 17.6942 4.73925 17.7273 4.70333 17.7688C4.66741 17.8103 4.64103 17.8592 4.62605 17.912C4.61107 17.9648 4.60787 18.0202 4.61666 18.0744C4.62545 18.1285 4.64602 18.1801 4.67692 18.2255C5.29563 19.1354 6.06363 19.9343 6.94848 20.5884C8.62496 21.8356 10.6603 22.5062 12.7497 22.5C18.1258 22.5 22.4997 18.1261 22.4997 12.75C22.4997 8.0414 19.1444 4.10155 14.6993 3.19593Z" fill="black"/>
</svg>
